<mxfile host="app.diagrams.net" modified="2024-06-21T03:21:23.767Z" agent="Mozilla/5.0 (Windows NT 10.0; Win64; x64; rv:127.0) Gecko/20100101 Firefox/127.0" version="24.5.5" etag="-6tOhAmhS_RIjFN-cGIX" type="github">
  <diagram name="第 1 页" id="Klx5wWOZIA0wIa24i3Dv">
    <mxGraphModel>
      <root>
        <mxCell id="0" />
        <mxCell id="1" parent="0" />
      </root>
    </mxGraphModel>
  </diagram>
</mxfile>
